# xmcd
# 
# Track frame offsets:
#     150
#     25080
#     43573
#     65495
#     84817
#     112485
#     127117
#     142939
#     157017
#     173341
#     206186
#     221799
#     243697
#     262458
# 
# Disc length: 3771
# 
# Revision: 5
# Processed by: cddbd v1.5.2PL0 Copyright (c) Steve Scherf et al.
# Submitted via: BonkEnc v1.0
# 
DISCID=d70eb90e
DTITLE=Daniel - Daniel Ao Vivo - CD 2
DYEAR=2001
DGENRE=Sertanejo
TTITLE0=Te Amo Cada Vez Mais (To Love You More)
TTITLE1=Porto Solidão
TTITLE2=Adoro Amar Você
TTITLE3=Pra Falar A Verdade
TTITLE4=La Puerta - Corazón Partio
TTITLE5=Paz Do Meu Amor
TTITLE6=Tocando Em Frente
TTITLE7=Dengo
TTITLE8=Show De Bola
TTITLE9=Rosto Molhado - Pode Passar O Rodo - Peão Apaixonado
TTITLE10=Eu Me Amarrei
TTITLE11=Quando O Coração Se Apaixona
TTITLE12=Um Beijo Pra Me Enlouquecer
TTITLE13=Só Seu Amor Não Vai Embora
EXTD=
EXTT0=
EXTT1=
EXTT2=
EXTT3=
EXTT4=
EXTT5=
EXTT6=
EXTT7=
EXTT8=
EXTT9=
EXTT10=
EXTT11=
EXTT12=
EXTT13=
PLAYORDER=
